<svg width="35" height="35" viewBox="0 0 35 35" fill="none" xmlns="http://www.w3.org/2000/svg">
<g filter="url(#filter0_d_146_2750)">
<path d="M25.6347 26.9998C24.458 26.9998 22.8051 26.5743 20.33 25.1917C17.3202 23.5042 14.9922 21.9462 11.9987 18.9611C9.11247 16.0773 7.70794 14.2102 5.74221 10.6338C3.52148 6.59584 3.90004 4.4792 4.32321 3.57457C4.82715 2.49335 5.57101 1.84667 6.53248 1.20481C7.07859 0.84708 7.65651 0.540422 8.2589 0.28873C8.31918 0.262814 8.37524 0.238104 8.42528 0.215805C8.72366 0.0814061 9.17576 -0.121699 9.74843 0.0952679C10.1306 0.238707 10.4718 0.532215 11.0059 1.05957C12.1012 2.13958 13.5979 4.5449 14.1501 5.72616C14.5208 6.52231 14.7661 7.04785 14.7668 7.63728C14.7668 8.32735 14.4195 8.85952 13.9982 9.43388C13.9192 9.54176 13.8408 9.64482 13.7649 9.74487C13.3062 10.3476 13.2055 10.5217 13.2718 10.8327C13.4062 11.4577 14.4087 13.3182 16.0561 14.9617C17.7036 16.6052 19.5108 17.5442 20.1383 17.678C20.4626 17.7473 20.6405 17.6425 21.2625 17.1675C21.3518 17.0994 21.4434 17.0289 21.5392 16.9584C22.1818 16.4805 22.6894 16.1424 23.3633 16.1424H23.3669C23.9535 16.1424 24.4556 16.3967 25.2875 16.8162C26.3725 17.3634 28.8506 18.8406 29.9375 19.9369C30.4661 20.4697 30.7609 20.8096 30.905 21.1911C31.122 21.7654 30.9176 22.2156 30.7844 22.517C30.7621 22.567 30.7374 22.6219 30.7115 22.6827C30.4577 23.2839 30.1492 23.8605 29.7898 24.4052C29.149 25.3635 28.4998 26.1054 27.4159 26.6098C26.8594 26.8731 26.2503 27.0064 25.6347 26.9998Z" fill="#2C617D"/>
</g>
<defs>
<filter id="filter0_d_146_2750" x="0" y="0" width="35" height="35" filterUnits="userSpaceOnUse" color-interpolation-filters="sRGB">
<feFlood flood-opacity="0" result="BackgroundImageFix"/>
<feColorMatrix in="SourceAlpha" type="matrix" values="0 0 0 0 0 0 0 0 0 0 0 0 0 0 0 0 0 0 127 0" result="hardAlpha"/>
<feOffset dy="4"/>
<feGaussianBlur stdDeviation="2"/>
<feComposite in2="hardAlpha" operator="out"/>
<feColorMatrix type="matrix" values="0 0 0 0 0 0 0 0 0 0 0 0 0 0 0 0 0 0 0.25 0"/>
<feBlend mode="normal" in2="BackgroundImageFix" result="effect1_dropShadow_146_2750"/>
<feBlend mode="normal" in="SourceGraphic" in2="effect1_dropShadow_146_2750" result="shape"/>
</filter>
</defs>
</svg>
