<svg width="37" height="37" viewBox="0 0 37 37" fill="none" xmlns="http://www.w3.org/2000/svg">
<g filter="url(#filter0_d_146_2753)">
<path d="M20.2 0.200195C28.4845 0.200195 35.2 6.9157 35.2 15.2002C35.2 23.4847 28.4845 30.2002 20.2 30.2002C17.5492 30.2048 14.9449 29.5032 12.655 28.1677L5.20604 30.2002L7.23404 22.7482C5.89747 20.4576 5.19539 17.8522 5.20004 15.2002C5.20004 6.9157 11.9155 0.200195 20.2 0.200195ZM15.088 8.1502L14.788 8.1622C14.5941 8.17556 14.4046 8.2265 14.23 8.31219C14.0674 8.40446 13.9189 8.51964 13.789 8.6542C13.609 8.8237 13.507 8.9707 13.3975 9.1132C12.8427 9.83455 12.544 10.7202 12.5485 11.6302C12.5515 12.3652 12.7435 13.0807 13.0435 13.7497C13.657 15.1027 14.6665 16.5352 15.9985 17.8627C16.3195 18.1822 16.6345 18.5032 16.9735 18.8017C18.6287 20.2588 20.601 21.3097 22.7335 21.8707L23.5855 22.0012C23.863 22.0162 24.1405 21.9952 24.4195 21.9817C24.8563 21.9587 25.2828 21.8404 25.669 21.6352C25.8653 21.5337 26.057 21.4236 26.2435 21.3052C26.2435 21.3052 26.307 21.2622 26.431 21.1702C26.6335 21.0202 26.758 20.9137 26.926 20.7382C27.052 20.6082 27.157 20.4572 27.241 20.2852C27.358 20.0407 27.475 19.5742 27.523 19.1857C27.559 18.8887 27.5485 18.7267 27.544 18.6262C27.538 18.4657 27.4045 18.2992 27.259 18.2287L26.386 17.8372C26.386 17.8372 25.081 17.2687 24.283 16.9057C24.1995 16.8693 24.11 16.8485 24.019 16.8442C23.9164 16.8335 23.8126 16.8449 23.7148 16.8778C23.617 16.9106 23.5274 16.9642 23.452 17.0347C23.4445 17.0317 23.344 17.1172 22.2595 18.4312C22.1973 18.5148 22.1115 18.5781 22.0132 18.6128C21.9149 18.6475 21.8085 18.6522 21.7075 18.6262C21.6098 18.6001 21.514 18.5671 21.421 18.5272C21.235 18.4492 21.1705 18.4192 21.043 18.3652C20.1818 17.9901 19.3847 17.4824 18.6805 16.8607C18.4915 16.6957 18.316 16.5157 18.136 16.3417C17.546 15.7765 17.0317 15.1372 16.606 14.4397L16.5175 14.2972C16.4549 14.2009 16.4036 14.0977 16.3645 13.9897C16.3075 13.7692 16.456 13.5922 16.456 13.5922C16.456 13.5922 16.8205 13.1932 16.99 12.9772C17.155 12.7672 17.2945 12.5632 17.3845 12.4177C17.5615 12.1327 17.617 11.8402 17.524 11.6137C17.104 10.5877 16.67 9.56719 16.222 8.55219C16.1335 8.35119 15.871 8.20719 15.6325 8.17869C15.5515 8.16869 15.4705 8.1607 15.3895 8.1547C15.1881 8.14314 14.9862 8.14515 14.785 8.1607L15.088 8.1502Z" fill="#30B153"/>
</g>
<defs>
<filter id="filter0_d_146_2753" x="1.21593e-05" y="0.000195265" width="36.4" height="36.4" filterUnits="userSpaceOnUse" color-interpolation-filters="sRGB">
<feFlood flood-opacity="0" result="BackgroundImageFix"/>
<feColorMatrix in="SourceAlpha" type="matrix" values="0 0 0 0 0 0 0 0 0 0 0 0 0 0 0 0 0 0 127 0" result="hardAlpha"/>
<feOffset dx="-2" dy="3"/>
<feGaussianBlur stdDeviation="1.6"/>
<feComposite in2="hardAlpha" operator="out"/>
<feColorMatrix type="matrix" values="0 0 0 0 0 0 0 0 0 0 0 0 0 0 0 0 0 0 0.25 0"/>
<feBlend mode="normal" in2="BackgroundImageFix" result="effect1_dropShadow_146_2753"/>
<feBlend mode="normal" in="SourceGraphic" in2="effect1_dropShadow_146_2753" result="shape"/>
</filter>
</defs>
</svg>
