<svg width="29" height="22" viewBox="0 0 29 22" fill="none" xmlns="http://www.w3.org/2000/svg">
<path d="M11.6 15.429L19.1255 10.8003L11.6 6.1716V15.429ZM28.362 3.34809C28.5505 4.07325 28.681 5.04528 28.768 6.2796C28.8695 7.51392 28.913 8.57852 28.913 9.50426L29 10.8003C29 14.1792 28.768 16.6633 28.362 18.2525C27.9995 19.6411 27.1585 20.536 25.8535 20.9217C25.172 21.1223 23.925 21.2611 22.011 21.3537C20.126 21.4617 18.4005 21.508 16.8055 21.508L14.5 21.6006C8.4245 21.6006 4.64 21.3537 3.1465 20.9217C1.8415 20.536 1.0005 19.6411 0.638 18.2525C0.4495 17.5273 0.319 16.5553 0.232 15.321C0.1305 14.0867 0.0869999 13.0221 0.0869999 12.0963L0 10.8003C0 7.42134 0.232 4.93728 0.638 3.34809C1.0005 1.95948 1.8415 1.0646 3.1465 0.678876C3.828 0.478299 5.075 0.339438 6.989 0.246864C8.874 0.138861 10.5995 0.0925739 12.1945 0.0925739L14.5 0C20.5755 0 24.36 0.246864 25.8535 0.678876C27.1585 1.0646 27.9995 1.95948 28.362 3.34809Z" fill="#F95555"/>
</svg>
