<svg width="22" height="16" viewBox="0 0 22 16" fill="none" xmlns="http://www.w3.org/2000/svg">
<g clip-path="url(#clip0_146_2777)">
<path d="M5.00002 15.9213V7.7215L2.36388 5.39503L0 4.104V14.4742C0 15.2749 0.672461 15.9213 1.50004 15.9213H5.00002Z" fill="#4285F4"/>
<path d="M17 15.9212H20.5C21.33 15.9212 22 15.2724 22 14.4742V4.104L19.3225 5.58272L17 7.72141V15.9212Z" fill="#34A853"/>
<path d="M5.00006 7.72151L4.64136 4.51762L5.00006 1.45117L11 5.79223L17 1.45117L17.4013 4.35206L17 7.72151L11 12.0626L5.00006 7.72151Z" fill="#EA4335"/>
<path d="M17 1.45108V7.72142L22 4.10393V2.17457C22 0.385135 19.8825 -0.634969 18.4001 0.438192L17 1.45108Z" fill="#FBBC04"/>
<path d="M0 4.10397L2.2996 5.76781L5.00002 7.72146V1.45112L3.59992 0.43823C2.11492 -0.635014 0 0.385173 0 2.17452V4.10397Z" fill="#C5221F"/>
</g>
<defs>
<clipPath id="clip0_146_2777">
<rect width="22" height="16" fill="white"/>
</clipPath>
</defs>
</svg>
