<svg width="30" height="28" viewBox="0 0 30 28" fill="none" xmlns="http://www.w3.org/2000/svg">
<path d="M20.1621 27.6429V16.9451H23.9549L24.5223 12.7864H20.1621V10.1342C20.1621 8.93018 20.5165 8.10857 22.3438 8.10857H24.6751V4.38754C23.5466 4.27384 22.4123 4.21898 21.2773 4.22321C17.917 4.22321 15.6166 6.16129 15.6166 9.72107V12.7864H11.8157V16.9451H15.6166V27.6429H1.62571C1.19455 27.6429 0.781041 27.4811 0.476161 27.1931C0.17128 26.9051 0 26.5144 0 26.1071V1.53571C0 1.12842 0.17128 0.737803 0.476161 0.4498C0.781041 0.161798 1.19455 0 1.62571 0H27.6371C28.0683 0 28.4818 0.161798 28.7867 0.4498C29.0916 0.737803 29.2629 1.12842 29.2629 1.53571V26.1071C29.2629 26.5144 29.0916 26.9051 28.7867 27.1931C28.4818 27.4811 28.0683 27.6429 27.6371 27.6429H20.1621Z" fill="#2C617D"/>
</svg>
