<svg width="30" height="28" viewBox="0 0 30 28" fill="none" xmlns="http://www.w3.org/2000/svg">
<path d="M8.57172 0.0967691C7.01493 0.166106 5.95183 0.40084 5.02236 0.745683C4.06058 1.09986 3.24524 1.57497 2.43405 2.34401C1.62298 3.11306 1.12331 3.88371 0.751183 4.79385C0.391004 5.67358 0.146902 6.67874 0.0781341 8.15015C0.00936609 9.62155 -0.00587505 10.0946 0.00180649 13.848C0.0093661 17.6012 0.0269239 18.0717 0.102398 19.5462C0.176775 21.0165 0.424291 22.0205 0.789469 22.8987C1.16501 23.8074 1.66736 24.5772 2.48185 25.3437C3.29621 26.1102 4.11143 26.5811 5.07711 26.9332C6.00767 27.273 7.07199 27.5046 8.62939 27.569C10.1868 27.6335 10.688 27.6484 14.6603 27.6412C18.6325 27.634 19.1326 27.6173 20.6931 27.5474C22.2538 27.4775 23.3109 27.242 24.241 26.8986C25.2029 26.5432 26.0184 26.0693 26.8293 25.2998C27.6401 24.5302 28.1394 23.759 28.5113 22.8484C28.8718 21.9693 29.1168 20.9641 29.1843 19.4939C29.2526 18.0186 29.2687 17.5477 29.2611 13.7949C29.2535 10.0421 29.2355 9.57156 29.1615 8.09763C29.0875 6.62369 28.8396 5.62279 28.4747 4.74398C28.0987 3.83534 27.5968 3.06606 26.7828 2.29898C25.9687 1.53189 25.1515 1.06058 24.188 0.710093C23.2567 0.369742 22.1932 0.137888 20.6358 0.0743093C19.0784 0.0107309 18.5771 -0.00573957 14.6034 0.00163183C10.6298 0.00877288 10.1323 0.0248978 8.57172 0.0967691ZM8.74266 25.0825C7.31609 25.0239 6.54148 24.8 6.02523 24.6126C5.34169 24.3638 4.85471 24.0631 4.34029 23.5817C3.82575 23.1005 3.50983 22.6389 3.24293 21.9946C3.04248 21.5069 2.80106 20.776 2.73436 19.4284C2.66181 17.972 2.64657 17.5346 2.63804 13.8446C2.6295 10.1546 2.6445 9.71772 2.71205 8.26072C2.77301 6.91428 3.01151 6.18175 3.20952 5.69432C3.47289 5.04782 3.79015 4.5886 4.30079 4.10301C4.81142 3.61731 5.29865 3.31819 5.98133 3.06606C6.4971 2.8759 7.27074 2.64981 8.6967 2.58566C10.2397 2.51655 10.7021 2.50273 14.6078 2.49466C18.5136 2.4866 18.9772 2.50042 20.5208 2.56469C21.9461 2.6232 22.722 2.8463 23.2374 3.03462C23.9211 3.28341 24.4079 3.58218 24.9219 4.06547C25.4361 4.54852 25.753 5.00716 26.0199 5.65343C26.2215 6.13913 26.4609 6.86971 26.5282 8.21764C26.6016 9.67522 26.6183 10.1123 26.6253 13.8015C26.6324 17.4906 26.6186 17.9288 26.5509 19.3853C26.4887 20.7329 26.2522 21.4649 26.0534 21.9531C25.7901 22.5986 25.4727 23.0588 24.9617 23.5442C24.4508 24.0297 23.9642 24.3287 23.2811 24.5808C22.7661 24.7707 21.9915 24.9974 20.5667 25.0615C19.0236 25.1301 18.5613 25.1445 14.654 25.1525C10.7468 25.1606 10.2857 25.1456 8.74266 25.0825ZM20.6706 6.43434C20.6712 6.7624 20.7748 7.08293 20.9682 7.35539C21.1616 7.62785 21.4363 7.84 21.7574 7.96501C22.0785 8.09001 22.4316 8.12226 22.7721 8.05767C23.1126 7.99308 23.4251 7.83456 23.6703 7.60215C23.9154 7.36974 24.082 7.07389 24.1491 6.752C24.2162 6.43012 24.1807 6.09667 24.0472 5.79383C23.9137 5.49099 23.6881 5.23236 23.3989 5.05065C23.1097 4.86895 22.77 4.77232 22.4228 4.77301C21.9572 4.77392 21.5111 4.94945 21.1826 5.26099C20.854 5.57253 20.6699 5.99458 20.6706 6.43434ZM7.11881 13.8352C7.12698 17.755 10.497 20.9253 14.6455 20.9179C18.7943 20.9104 22.1527 17.7273 22.1449 13.8076C22.1369 9.88784 18.7662 6.71664 14.617 6.72436C10.4677 6.73207 7.11101 9.91595 7.11881 13.8352ZM9.75431 13.8303C9.75241 12.9191 10.0366 12.0278 10.5709 11.2692C11.1052 10.5105 11.8657 9.91862 12.7561 9.56825C13.6466 9.21789 14.627 9.12482 15.5735 9.30081C16.5199 9.4768 17.3899 9.91395 18.0733 10.557C18.7567 11.2 19.2229 12.0201 19.413 12.9134C19.6031 13.8067 19.5085 14.7332 19.1411 15.5758C18.7737 16.4183 18.1501 17.139 17.3492 17.6468C16.5482 18.1545 15.6058 18.4265 14.6412 18.4283C14.0007 18.4296 13.3662 18.3116 12.774 18.0813C12.1817 17.8509 11.6433 17.5125 11.1895 17.0855C10.7357 16.6585 10.3754 16.1513 10.1291 15.5928C9.88287 15.0342 9.75551 14.4353 9.75431 13.8303Z" fill="url(#paint0_linear_146_2731)"/>
<defs>
<linearGradient id="paint0_linear_146_2731" x1="14.6314" y1="0" x2="14.6314" y2="27.6429" gradientUnits="userSpaceOnUse">
<stop stop-color="#AF5C5C"/>
<stop offset="1" stop-color="#C56DC9"/>
</linearGradient>
</defs>
</svg>
